<svg width="28" height="53" viewBox="0 0 28 53" fill="none" xmlns="http://www.w3.org/2000/svg">
  <path fill-rule="evenodd" clip-rule="evenodd" d="M13.6364 16.909C10.9212 16.909 8.48402 18.0993 6.81824 19.9866L6.81824 14.1878C8.82397 13.0276 11.1526 12.3635 13.6364 12.3635C21.1676 12.3635 27.2728 18.4687 27.2728 25.9999L27.2728 49.0379L22.7273 52.1338L22.7273 25.9999C22.7273 20.9791 18.6572 16.909 13.6364 16.909Z" fill="#171637"/>
  <path fill-rule="evenodd" clip-rule="evenodd" d="M13.6364 35.2004C16.3516 35.2004 18.7888 34.0101 20.4546 32.1227L20.4546 37.9215C18.4489 39.0818 16.1202 39.7458 13.6364 39.7458C6.10525 39.7458 4.57312e-05 33.6406 4.82969e-05 26.1095L5.41261e-05 3.06736L4.54551 2.14974e-05L4.5455 26.1095C4.5455 31.1303 8.61564 35.2004 13.6364 35.2004Z" fill="#171637"/>
</svg>
